<svg width="28" height="25" viewBox="0 0 28 25" fill="none" xmlns="http://www.w3.org/2000/svg">
<path d="M4.66699 19.7913V17.708H7.00033V10.4163C7.00033 8.97537 7.48644 7.69933 8.45866 6.58822C9.43088 5.45974 10.6948 4.7219 12.2503 4.37467V3.64551C12.2503 3.21148 12.4156 2.8469 12.7462 2.55176C13.0962 2.23926 13.5142 2.08301 14.0003 2.08301C14.4864 2.08301 14.8948 2.23926 15.2253 2.55176C15.5753 2.8469 15.7503 3.21148 15.7503 3.64551V4.37467C17.3059 4.7219 18.5698 5.45974 19.542 6.58822C20.5142 7.69933 21.0003 8.97537 21.0003 10.4163V17.708H23.3337V19.7913H4.66699ZM14.0003 22.9163C13.3587 22.9163 12.8045 22.7167 12.3378 22.3174C11.8906 21.9007 11.667 21.4059 11.667 20.833H16.3337C16.3337 21.4059 16.1003 21.9007 15.6337 22.3174C15.1864 22.7167 14.642 22.9163 14.0003 22.9163ZM9.33366 17.708H18.667V10.4163C18.667 9.27051 18.21 8.2896 17.2962 7.47363C16.3823 6.65766 15.2837 6.24967 14.0003 6.24967C12.717 6.24967 11.6184 6.65766 10.7045 7.47363C9.7906 8.2896 9.33366 9.27051 9.33366 10.4163V17.708Z" fill="#1D1B20"/>
</svg>
