<svg width="22" height="26" viewBox="0 0 22 26" fill="none" xmlns="http://www.w3.org/2000/svg">
<path d="M15 6.52915C15 6.52915 16.5225 5.83252 11 5.83252C9.02219 5.83252 7.08879 6.37728 5.4443 7.39791C3.79981 8.41854 2.51809 9.86919 1.76121 11.5664C1.00433 13.2637 0.8063 15.1313 1.19215 16.9331C1.578 18.7349 2.53041 20.3899 3.92894 21.6889C5.32746 22.9879 7.10929 23.8726 9.0491 24.231C10.9889 24.5894 12.9996 24.4054 14.8268 23.7024C16.6541 22.9994 18.2159 21.8088 19.3147 20.2814C20.4135 18.7539 21 16.9581 21 15.121" stroke="black" stroke-width="2" stroke-miterlimit="10" stroke-linecap="square"/>
<path d="M10.5645 1.40967L15.7818 5.83275L10.5645 10.2558" stroke="black" stroke-width="2" stroke-miterlimit="10" stroke-linecap="square"/>
</svg>
